<?xml version="1.0" standalone="no"?><!DOCTYPE svg PUBLIC "-//W3C//DTD SVG 1.1//EN" "http://www.w3.org/Graphics/SVG/1.1/DTD/svg11.dtd"><svg class="icon" width="200px" height="200.00px" viewBox="0 0 1024 1024" version="1.1" xmlns="http://www.w3.org/2000/svg"><path d="M511.998465 1023.999999c0 0-376.057865-293.103548-376.057865-584.98015 0-207.696366 168.361499-376.058888 376.057865-376.058888 207.698412 0 376.059911 168.362522 376.059911 376.058888C888.058376 733.754545 511.998465 1023.999999 511.998465 1023.999999zM511.998465 146.529261c-161.54628 0-292.489564 130.902352-292.489564 292.490587 0 210.635301 292.489564 473.501174 292.489564 473.501174s292.489564-266.13022 292.489564-473.501174C804.488029 277.431613 673.546791 146.529261 511.998465 146.529261zM511.998465 564.373834c-69.245084 0-125.351939-56.148811-125.351939-125.353986 0-69.246107 56.106856-125.351939 125.351939-125.351939 69.24713 0 125.352963 56.105832 125.352963 125.351939C637.351428 508.225023 581.245595 564.373834 511.998465 564.373834zM511.998465 397.237233c-23.054065 0-41.783639 18.687618-41.783639 41.782615 0 23.056112 18.729573 41.784662 41.783639 41.784662 23.056112 0 41.783639-18.72855 41.783639-41.784662C553.782104 415.923828 535.054577 397.237233 511.998465 397.237233z" fill="#dbdbdb" /></svg>