<?xml version="1.0" encoding="UTF-8"?>
<svg width="195px" height="195px" viewBox="0 0 195 195" version="1.1" xmlns="http://www.w3.org/2000/svg" xmlns:xlink="http://www.w3.org/1999/xlink">
    <title>Disc</title>
    <g id="Page-1" stroke="none" stroke-width="1" fill="none" fill-rule="evenodd">
        <g id="Disc" transform="translate(0.906250, 0.367188)" fill="#DBDBDB" fill-rule="nonzero">
            <path d="M85.9058713,96.7419033 C85.9058713,90.7540246 90.7785986,85.8812973 96.7664773,85.8812973 C102.754356,85.8812973 107.614962,90.7540246 107.614962,96.7419033 C107.614962,102.729782 102.754356,107.602509 96.7664773,107.602509 C90.7710994,107.595829 85.9125514,102.737281 85.9058713,96.7419033 M119.742235,96.7419033 C119.742235,84.069176 109.439204,73.7600852 96.7664773,73.7600852 C84.0795084,73.7734469 73.7980209,84.0549344 73.7846592,96.7419033 C73.7980208,109.428872 84.0795083,119.71036 96.7664773,119.723722 C109.450096,119.707015 119.726159,109.425529 119.736174,96.7419033" id="Shape"></path>
            <path d="M96.7604166,181.335843 C50.1179924,181.335843 12.1725379,143.384328 12.1725379,96.7479641 C12.1725379,50.0994793 50.1119318,12.1419033 96.7664773,12.1419033 C143.408902,12.1419033 181.360417,50.0994791 181.360417,96.7479641 C181.360417,143.384328 143.408901,181.335843 96.7664773,181.335843 M96.7664773,0.0267519531 C43.4270834,0.0267519531 0.0513257813,43.4085701 0.0513257813,96.7479641 C0.0513257813,150.075237 43.4392045,193.463116 96.7664773,193.463116 C150.09375,193.463116 193.481629,150.069176 193.481629,96.7479641 C193.481629,43.4146307 150.087689,0.0206912109 96.7664773,0.0206912109" id="Shape"></path>
            <path d="M153.584659,90.6812973 C150.237479,90.6812973 147.524053,93.394723 147.524053,96.7419033 L147.524053,96.7479641 C147.524053,124.735843 124.754356,147.499479 96.7664773,147.499479 C93.419297,147.499479 90.7058713,150.212905 90.7058713,153.560085 C90.7058713,156.907265 93.419297,159.620691 96.7664773,159.620691 C131.433144,159.620691 159.645265,131.414631 159.645265,96.7419033 C159.645265,93.394723 156.931839,90.6812973 153.584659,90.6812973 M96.7604166,45.9843277 C100.107597,45.9843277 102.821023,43.270902 102.821023,39.9237217 C102.821023,36.5765414 100.107597,33.8631156 96.7604166,33.8631156 C62.09375,33.8631156 33.89375,62.0691762 33.8876895,96.7358428 L33.8876895,96.7419033 C33.8876895,100.089084 36.6011152,102.802509 39.9482955,102.802509 C43.2954758,102.802509 46.0089016,100.089084 46.0089016,96.7419033 C46.0089016,68.7540246 68.7785984,45.9843275 96.7664773,45.9843277 L96.7604166,45.9843277 Z" id="Shape"></path>
        </g>
    </g>
</svg>